<?xml version="1.0" encoding="utf-8"?>
<svg version="1.1" id="Layer_1" xmlns="http://www.w3.org/2000/svg" x="0px"
     y="0px"
     viewBox="0 0 300 87" style="enable-background:new 0 0 300 87;" xml:space="preserve">
<style type="text/css">
	.st0{fill:#3373B9;}
	.st1{fill-rule:evenodd;clip-rule:evenodd;fill:#3373B9;}
</style>
    <g>
	<g>
		<g>
			<path class="st0" d="M276.5,28.5c2.6,0,4.7,2.1,4.7,4.7s-2.1,4.7-4.7,4.7c-2.6,0-4.7-2.1-4.7-4.7S273.9,28.5,276.5,28.5z
				 M276.5,37c2,0,3.7-1.6,3.7-3.8c0-2.1-1.6-3.8-3.7-3.8s-3.7,1.6-3.7,3.8C272.8,35.3,274.4,37,276.5,37z M275.9,35.7h-1v-5.1h1.8
				c1,0,1.7,0.7,1.7,1.6c0,0.7-0.5,1.3-1.1,1.5l1.2,2h-1.1l-1.1-1.9h-0.4V35.7z M276.5,33c0.6,0,0.9-0.3,0.9-0.8
				c0-0.5-0.3-0.8-0.9-0.8h-0.7V33H276.5z"/>
		</g>
	</g>
        <g>
		<path class="st0" d="M18.8,59.4l0.6-9.2l0.8-20.4l0.4-14.8c0-1.3,0-2.7,0-4.1c0-1,0-2.5,0-4.5c3,0,5.4,0.1,7.2,0.1
			c1.5,0,3.6,0,6.2-0.1c2.6-0.1,4.7-0.1,6.3-0.1c3.2,0,5.6,0.3,7.1,0.8c1.6,0.6,3,1.5,4.2,2.7c1.2,1.2,2.1,2.7,2.8,4.4
			c0.7,1.9,1.1,4,1.1,6.2c0,3.3-0.7,6.4-2.2,9.1c-1.5,2.7-3.6,4.8-6.2,6.1c-2.6,1.3-5.6,2-8.8,2c-1.6,0-3.3-0.2-5.1-0.5
			c-0.5-2.7-1.1-5.2-1.8-7.6c1.4,0.3,2.9,0.5,4.3,0.5c1.9,0,3.6-0.3,5-1s2.5-1.7,3.4-3.2c0.8-1.5,1.2-3.1,1.2-4.9
			c0-1.1-0.2-2.1-0.5-3c-0.3-0.9-0.9-1.6-1.5-2.2c-0.7-0.5-1.4-0.9-2.2-1.1s-1.9-0.3-3.4-0.3c-1.3,0-2.6,0-3.9,0.1s-2.5,0.1-3.5,0.1
			c-0.3,5.1-0.5,9.9-0.6,14.5l-0.4,14.8c-0.1,5.2-0.2,9.1-0.2,11.6c0,0.9,0,2.3,0,4l-5.1-0.1C23.4,59.3,21.7,59.4,18.8,59.4z"/>
            <path class="st0" d="M58.8,59.4l1-18.4l0.3-10.7c0-2.2,0.1-4.4,0.1-6.6c0-0.4,0-1.6-0.1-3.7c2.2,0,3.8,0.1,4.8,0.1
			c1.2,0,2.8,0,4.7-0.1l-0.2,5.5c0.9-1.4,1.6-2.4,2.3-3.1c0.6-0.7,1.3-1.3,2.1-1.8c0.8-0.5,1.6-0.9,2.6-1.1c1-0.3,1.9-0.4,2.9-0.4
			c0.9,0,1.9,0.1,2.9,0.4c0,2.4,0.1,5.5,0.3,9.2c-1.4-0.4-2.6-0.6-3.7-0.6c-1.3,0-2.5,0.2-3.6,0.7c-1,0.5-2,1.1-2.8,2.1
			s-1.5,2.1-2,3.4c-0.4,1.1-0.8,2.5-1,4.2c-0.2,1.3-0.3,3.6-0.4,6.9c-0.1,3.3-0.2,6.5-0.2,9.6c0,1.2,0,2.7,0.1,4.6
			c-1.8,0-3.4-0.1-4.8-0.1C62.6,59.3,60.8,59.3,58.8,59.4z"/>
            <path class="st0" d="M158,5.3c3.5,0,6.8,0.5,10,1.6c3.2,1.1,6,2.8,8.5,5.2c2.5,2.4,4.3,5.2,5.6,8.4c1.3,3.2,1.9,6.9,1.9,11.1
			c0,4-0.6,7.8-1.8,11.4c-1.2,3.6-3,6.8-5.5,9.4c-2.5,2.6-5.5,4.6-9.1,5.9c-3.6,1.3-7.3,1.9-11.2,1.9c-3.7,0-7.3-0.6-10.7-1.7
			c-3.4-1.2-6.4-3-8.9-5.5c-2.5-2.5-4.3-5.3-5.3-8.5c-1.1-3.2-1.6-6.7-1.6-10.5c0-4.1,0.7-8,2-11.8c1.3-3.8,3.3-6.9,5.9-9.3
			c2.6-2.5,5.6-4.3,9.1-5.6C150.3,6,154,5.3,158,5.3z M157.5,13.6c-3.5,0-6.6,0.9-9.2,2.7c-2.6,1.8-4.6,4.3-5.9,7.4s-2,6.5-2,10.1
			c0,3.4,0.6,6.5,1.9,9.3c1.3,2.8,3.2,5,5.8,6.5c2.6,1.5,5.5,2.2,8.5,2.2c2.3,0,4.5-0.4,6.6-1.3c2.1-0.9,3.9-2.2,5.4-4
			c1.5-1.8,2.7-4,3.4-6.5c0.8-2.5,1.1-5.2,1.1-7.9c0-2.6-0.4-5-1-7.4c-0.7-2.4-1.8-4.4-3.2-6.1c-1.4-1.7-3.2-2.9-5.2-3.8
			C161.8,14,159.7,13.6,157.5,13.6z"/>
            <path class="st0" d="M188.4,59.2c0.5-5.9,1-12.5,1.3-19.8c0.3-7.3,0.5-13.9,0.6-19.7c2.1,0,3.8,0.1,5.1,0.1c1.5,0,3.1,0,4.8-0.1
			l-0.4,6.6c0.7-1.1,1.3-2,1.9-2.7s1.2-1.3,2.1-2c0.8-0.6,1.8-1.2,2.7-1.6c1-0.4,2-0.7,3.2-0.9c1.2-0.2,2.4-0.4,3.7-0.4
			c2.1,0,4,0.3,5.9,0.9c1.9,0.6,3.4,1.5,4.6,2.8c1.2,1.3,1.9,2.6,2.3,4.1c0.4,1.5,0.6,3.1,0.6,4.8c0,0.7,0,1.8-0.1,3.3l-0.7,17
			c-0.1,2.4-0.1,4.9-0.2,7.5c-1.8,0-3.4-0.1-4.7-0.1c-1.8,0-3.5,0-5.3,0.1c0.2-2.2,0.4-6.2,0.7-11.8c0.3-5.6,0.4-9.3,0.4-11.1
			c0-2-0.3-3.7-0.9-4.9c-0.6-1.2-1.5-2.2-2.7-2.8c-1.2-0.6-2.5-1-4-1c-1.4,0-2.7,0.3-3.9,0.9c-1.2,0.6-2.2,1.5-3.1,2.6
			c-0.9,1.2-1.6,2.6-2.2,4.3c-0.5,1.8-0.9,4.8-1.2,9c-0.2,3.7-0.4,8.7-0.5,14.9c-1.8,0-3.4-0.1-4.9-0.1
			C192.3,59.1,190.5,59.1,188.4,59.2z"/>
            <path class="st0" d="M264.7,50.2c-0.3,1.5-0.7,4.3-1.3,8.2c-2.5,0.6-4.6,1-6.3,1.2c-1.7,0.2-3.4,0.3-5.2,0.3c-3,0-5.8-0.3-8.2-1
			c-2.4-0.7-4.5-1.9-6.3-3.7c-1.8-1.8-3.2-4-4-6.6c-0.9-2.6-1.3-5.3-1.3-8.2c0-3.2,0.5-6.3,1.5-9.2c1-3,2.4-5.4,4.2-7.3
			s3.8-3.2,6.1-4c2.3-0.8,4.7-1.2,7.2-1.2c2.4,0,4.6,0.3,6.8,1c2.1,0.7,3.9,1.7,5.4,3.2c1.5,1.5,2.6,3.3,3.4,5.4
			c0.8,2.1,1.2,4.4,1.2,7c0,1.2-0.1,2.5-0.3,3.8l-25.5,0.1c0,1-0.1,1.7-0.1,2.3c0,1.7,0.3,3.3,0.8,4.8c0.5,1.4,1.3,2.7,2.3,3.7
			c1,1,2.2,1.7,3.7,2.2c1.4,0.5,2.8,0.7,4.2,0.7c1.6,0,3.3-0.2,5.2-0.6S262.1,51.2,264.7,50.2z M242.2,34.6l16.3,0
			c0-1.2,0-2.2-0.1-2.7c-0.1-0.6-0.2-1.3-0.5-2c-0.2-0.8-0.6-1.4-1-2s-0.9-1.1-1.5-1.4c-0.6-0.4-1.2-0.7-1.9-0.9
			c-0.7-0.2-1.5-0.3-2.4-0.3c-1,0-1.9,0.2-2.8,0.5c-0.9,0.3-1.8,0.8-2.5,1.5c-0.8,0.6-1.4,1.4-1.9,2.2c-0.5,0.8-0.8,1.6-1.1,2.3
			C242.6,32.4,242.4,33.4,242.2,34.6z"/>
	</g>
        <g>
		<path class="st1" d="M125.8,39.6c-0.1,1.9-0.5,3.6-1.1,5.3c-1.4-2.8-3.3-5.2-5.3-6.9l-1.2-1c-0.6-6.4-5.8-11.6-12.4-12
			c-7.3-0.5-13.7,5.1-14.2,12.4c-0.5,7.3,5.1,13.7,12.4,14.2c2.6,0.2,5-0.4,7.1-1.5c-0.6,2.2-0.5,4.5,0.7,6.6c0.2,0.4,0.4,0.7,0.7,1
			c-2.8,1.1-5.8,1.6-9,1.4c-11.5-0.7-20.2-10.7-19.5-22.2c0.7-11.5,10.7-20.2,22.2-19.5C117.9,18.1,126.6,28.1,125.8,39.6z"/>
            <path class="st0" d="M105,59.6c-0.5,0-0.9,0-1.4,0c-5.7-0.4-10.9-2.9-14.7-7.2c-3.8-4.3-5.6-9.8-5.3-15.5
			c0.4-5.7,2.9-10.9,7.2-14.7c4.3-3.8,9.8-5.6,15.5-5.3c11.8,0.8,20.7,10.9,19.9,22.7c-0.1,1.9-0.5,3.7-1.1,5.5l-0.4,1.1l-0.5-1.1
			c-1.3-2.6-3.2-5.1-5.2-6.8l-1.4-1.2l0-0.2c-0.6-6.3-5.6-11.2-11.9-11.6c-3.4-0.2-6.7,0.9-9.3,3.2s-4.1,5.4-4.3,8.8
			c-0.5,7.1,4.9,13.2,12,13.6c2.4,0.2,4.7-0.4,6.8-1.5l1.1-0.6l-0.3,1.1c-0.7,2.2-0.4,4.4,0.6,6.2c0.2,0.3,0.4,0.7,0.7,1l0.4,0.5
			l-0.6,0.3C110.3,59.1,107.7,59.6,105,59.6z M105,17.8c-4.9,0-9.7,1.8-13.4,5.1c-4.1,3.6-6.5,8.6-6.9,14c-0.4,5.4,1.4,10.7,5,14.8
			c3.6,4.1,8.6,6.5,14,6.9c2.8,0.2,5.6-0.2,8.2-1.1c-0.1-0.2-0.2-0.4-0.3-0.5c-1.1-1.8-1.4-3.8-1-6c-2,0.9-4.2,1.3-6.4,1.1
			c-7.6-0.5-13.4-7.1-12.9-14.7c0.2-3.7,1.9-7.1,4.7-9.5c2.8-2.4,6.3-3.6,10-3.4c6.7,0.4,12.1,5.6,12.8,12.3l1.1,0.9
			c1.8,1.5,3.5,3.7,4.8,6c0.4-1.3,0.6-2.7,0.7-4.1l0,0c0.7-11.2-7.8-20.9-19-21.6C105.9,17.9,105.4,17.8,105,17.8z"/>
	</g>
        <g>
		<path class="st1"
              d="M118.4,39.3c-0.2,3.3-2.8,6.1-4.5,9c-4.2,7.2,2.9,12.6,7.6,9.8C128.7,53.9,123.3,43.5,118.4,39.3z"/>
	</g>
        <g>
		<path class="st0"
              d="M32.9,70.2h2.2l-3.1,11.3h-2.3l-2.6-8l-2.6,8h-2.3l-3.1-11.3h2.3l2.1,7.8l2.5-7.8h2.3l2.5,7.8L32.9,70.2z"/>
            <path class="st0"
                  d="M53.2,78.9h-4.6l-0.9,2.6h-2.3l4.3-11.3h2.5l4.3,11.3h-2.4L53.2,78.9z M49.3,76.9h3.1l-1.6-4.3L49.3,76.9z"/>
            <path class="st0" d="M72.1,72.2v9.2h-2.2v-9.2h-3.6v-2.1h9.3v2.1H72.1z"/>
            <path class="st0" d="M87.7,81.4V70.2h7.1v2.1h-4.9v2.6h4.4v2h-4.4v2.6h4.9v2.1H87.7z"/>
            <path class="st0" d="M110.8,77.1h-1.1v4.3h-2.2V70.2h4.4c2.2,0,3.6,1.5,3.6,3.5c0,1.6-0.9,2.8-2.4,3.2l2.4,4.6H113L110.8,77.1z
			 M111.4,75.2c1.1,0,1.8-0.6,1.8-1.6c0-1-0.7-1.6-1.8-1.6h-1.8v3.1H111.4z"/>
            <path class="st0" d="M142.2,81.4V70.2h7.1v2.1h-4.9V75h4.4v2h-4.4v4.4H142.2z"/>
            <path class="st0" d="M161.6,81.4V70.2h2.2v11.3H161.6z"/>
            <path class="st0" d="M176.9,81.4V70.2h2.2v9.2h5v2.1H176.9z"/>
            <path class="st0" d="M199.9,72.2v9.2h-2.2v-9.2h-3.6v-2.1h9.3v2.1H199.9z"/>
            <path class="st0" d="M215.5,81.4V70.2h7.1v2.1h-4.9v2.6h4.4v2h-4.4v2.6h4.9v2.1H215.5z"/>
            <path class="st0" d="M238.5,77.1h-1.1v4.3h-2.2V70.2h4.4c2.2,0,3.6,1.5,3.6,3.5c0,1.6-0.9,2.8-2.4,3.2l2.4,4.6h-2.4L238.5,77.1z
			 M239.2,75.2c1.1,0,1.8-0.6,1.8-1.6c0-1-0.7-1.6-1.8-1.6h-1.8v3.1H239.2z"/>
            <path class="st0" d="M261.2,73.5c-0.1-0.6-0.6-1.6-2-1.6c-1.1,0-1.8,0.7-1.8,1.4c0,0.6,0.4,1.1,1.2,1.3l1.6,0.3
			c2,0.4,3.1,1.7,3.1,3.3c0,1.7-1.4,3.5-4.1,3.5c-3,0-4.3-1.9-4.5-3.5l2-0.5c0.1,1.1,0.9,2.1,2.5,2.1c1.2,0,1.8-0.6,1.8-1.4
			c0-0.7-0.5-1.2-1.4-1.3l-1.6-0.3c-1.8-0.4-3-1.5-3-3.2c0-2,1.8-3.5,3.9-3.5c2.7,0,3.8,1.7,4,2.9L261.2,73.5z"/>
	</g>
</g>
</svg>
